<?xml version="1.0" encoding="UTF-8" standalone="no"?>
<!-- Created with Inkscape (http://www.inkscape.org/) -->

<svg
   width="32"
   height="32"
   viewBox="0 0 32 32"
   version="1.1"
   id="svg1"
   inkscape:version="1.4.2 (2aeb623e1d, 2025-05-12)"
   sodipodi:docname="apps.svg"
   xmlns:inkscape="http://www.inkscape.org/namespaces/inkscape"
   xmlns:sodipodi="http://sodipodi.sourceforge.net/DTD/sodipodi-0.dtd"
   xmlns="http://www.w3.org/2000/svg"
   xmlns:svg="http://www.w3.org/2000/svg">
  <sodipodi:namedview
     id="namedview1"
     pagecolor="#ffffff"
     bordercolor="#000000"
     borderopacity="0.25"
     inkscape:showpageshadow="2"
     inkscape:pageopacity="0.0"
     inkscape:pagecheckerboard="0"
     inkscape:deskcolor="#d1d1d1"
     inkscape:document-units="px"
     inkscape:zoom="32.373269"
     inkscape:cx="22.42591"
     inkscape:cy="23.676942"
     inkscape:window-width="1920"
     inkscape:window-height="1011"
     inkscape:window-x="0"
     inkscape:window-y="32"
     inkscape:window-maximized="1"
     inkscape:current-layer="layer1"
     showgrid="true">
    <inkscape:grid
       id="grid1"
       units="px"
       originx="0"
       originy="0"
       spacingx="1"
       spacingy="1"
       empcolor="#0099e5"
       empopacity="0.30196078"
       color="#0099e5"
       opacity="0.14901961"
       empspacing="8"
       enabled="true"
       visible="true" />
  </sodipodi:namedview>
  <defs
     id="defs1" />
  <g
     inkscape:label="Layer 1"
     inkscape:groupmode="layer"
     id="layer1">
    <path
       id="path71"
       d="m 25.326773,12.242227 h -2.909985 v -0.125418 c 0,-1.814481 -0.300305,-3.5380788 -0.900251,-5.1712453 0,-0.1254179 0.558033,-0.3067256 1.674766,-0.5443822 1.423691,1.954435 2.13547,3.8593405 2.13547,5.7156275 z M 21.055966,5.835883 C 20.916258,5.3478431 20.546298,4.6707715 19.946418,3.8055599 h 0.104648 c 0.641792,0.3485382 1.388565,0.8720241 2.240118,1.5700052 0,0.1535923 -0.411939,0.3071846 -1.235218,0.4603179 z m 0.125604,6.406344 -4.603778,-0.01956 V 7.4063273 h 0.437619 c 1.074621,0 2.163212,-0.1117863 3.265907,-0.3353591 0.59988,1.661341 0.900252,3.2313458 0.900252,4.7104618 z M 16.575797,2.904909 h 0.334966 c 0.851154,0 1.821393,1.0124373 2.909985,3.0359479 0,0.1672239 -1.149398,0.3208162 -3.242956,0.4603246 z M 15.445359,6.4011815 C 14.147272,6.3175696 13.100527,6.2062356 12.30499,6.0662748 H 12.179385 C 13.226131,3.9591589 14.202889,2.904909 15.110326,2.904909 h 0.335033 z m 0,5.8410455 c 0,0 -4.536119,0 -4.605773,0 0,-1.716786 0.299973,-3.4403765 0.900185,-5.1712454 1.130437,0.2235727 2.21191,0.335359 3.244951,0.335359 h 0.459041 z M 9.7090154,5.500983 C 10.378948,4.8311763 11.125388,4.2658845 11.949067,3.8055599 h 0.12567 C 11.432613,4.8102733 11.0558,5.4873515 10.944234,5.835883 c -0.1119,0 -0.52344,-0.1113273 -1.2352186,-0.3349 z m -0.104648,6.615826 v 0.125418 H 6.6734267 c 0,-1.786307 0.711779,-3.7334772 2.1354035,-5.8410455 0.711779,0.1399608 1.2351518,0.286275 1.5701178,0.439874 h 0.125605 C 9.9043405,8.9068178 9.6043674,10.665402 9.6043674,12.116809 Z M 26.561925,8.745954 C 24.217159,3.5819872 20.734771,1.0000038 16.115292,1.0000038 c -1.800503,0 -3.559028,0.446693 -5.275706,1.33962 -4.0477401,2.5960674 -6.0713107,6.1205076 -6.0713107,10.5724032 0,2.666047 0.9349791,5.289843 2.8054031,7.871827 H 7.8039305 V 17.957395 C 7.0502391,15.989774 6.6734267,14.531109 6.6734267,13.581833 v -0.104508 h 2.9309407 v 0.209482 c 0,1.200564 0.1115003,1.800391 0.3349666,1.800391 h 0.774648 l 0.230252,-0.104515 -0.104648,-1.130584 v -0.774774 h 4.605773 v 2.009873 l 1.130438,0.0013 v -2.011236 h 4.605773 v 0.771135 l -0.04657,1.170121 0.151017,0.06862 h 0.795538 c 0.223133,0 0.335033,-0.411699 0.335033,-1.235098 v -0.774774 h 2.909984 c 0,1.214189 -0.376812,2.707853 -1.13057,4.480069 v 2.826459 h 0.125604 c 1.939812,-2.35841 2.910118,-4.947665 2.910118,-7.766853 0,-1.214648 -0.223533,-2.63788 -0.67,-4.2710462"
       style="fill:#1a1a1a;fill-opacity:1;fill-rule:nonzero;stroke:none;stroke-width:0.00454414" />
    <path
       id="path3-3"
       style="fill:#000000;fill-opacity:1;fill-rule:nonzero;stroke:none;stroke-width:0.000546638"
       d="M 10.279297 16.111328 C 9.3306923 16.111328 8.5585938 16.906674 8.5585938 17.884766 L 8.5585938 27.873047 C 8.5585937 28.85114 9.3306923 29.646484 10.279297 29.646484 L 21.710938 29.646484 C 22.659537 29.646484 23.431641 28.85114 23.431641 27.873047 L 23.431641 17.884766 C 23.431641 16.906674 22.659537 16.111328 21.710938 16.111328 L 10.279297 16.111328 z M 10.650391 17.371094 L 21.339844 17.371094 C 21.813416 17.371094 22.199219 17.767451 22.199219 18.255859 L 22.199219 20.408203 L 9.7910156 20.408203 L 9.7910156 18.255859 C 9.7910156 17.767451 10.17683 17.371094 10.650391 17.371094 z M 9.7910156 21.666016 L 22.199219 21.666016 L 22.199219 27.501953 C 22.199219 27.990361 21.813416 28.386719 21.339844 28.386719 L 10.650391 28.386719 C 10.17683 28.386719 9.7910156 27.990361 9.7910156 27.501953 L 9.7910156 21.666016 z " />
    <path
       id="path5-8"
       d="m 11.431033,18.153659 c -0.352232,0 -0.638647,0.295409 -0.638647,0.658482 0,0.363072 0.286415,0.658482 0.638647,0.658482 0.352233,0 0.638627,-0.29541 0.638627,-0.658482 0,-0.363073 -0.286394,-0.658482 -0.638627,-0.658482"
       style="fill:#000000;fill-opacity:1;fill-rule:nonzero;stroke:none;stroke-width:0.000546638" />
    <path
       id="path6-31"
       d="m 13.214482,18.153659 c -0.352232,0 -0.63868,0.295409 -0.63868,0.658482 0,0.363072 0.286448,0.658482 0.63868,0.658482 0.352233,0 0.638627,-0.29541 0.638627,-0.658482 0,-0.363073 -0.286394,-0.658482 -0.638627,-0.658482"
       style="fill:#000000;fill-opacity:1;fill-rule:nonzero;stroke:none;stroke-width:0.000546638" />
    <path
       id="path7-89"
       d="m 14.997931,18.153659 c -0.352232,0 -0.63868,0.295409 -0.63868,0.658482 0,0.363072 0.286448,0.658482 0.63868,0.658482 0.352232,0 0.638626,-0.29541 0.638626,-0.658482 0,-0.363073 -0.286394,-0.658482 -0.638626,-0.658482"
       style="fill:#000000;fill-opacity:1;fill-rule:nonzero;stroke:none;stroke-width:0.000546638" />
  </g>
</svg>
