<?xml version="1.0" encoding="UTF-8" standalone="no"?>
<!-- Created with Inkscape (http://www.inkscape.org/) -->

<svg
   width="32"
   height="32"
   viewBox="0 0 32 32"
   version="1.1"
   id="svg1"
   inkscape:version="1.4.2 (2aeb623e1d, 2025-05-12)"
   sodipodi:docname="usergroup.svg"
   xmlns:inkscape="http://www.inkscape.org/namespaces/inkscape"
   xmlns:sodipodi="http://sodipodi.sourceforge.net/DTD/sodipodi-0.dtd"
   xmlns="http://www.w3.org/2000/svg"
   xmlns:svg="http://www.w3.org/2000/svg">
  <sodipodi:namedview
     id="namedview1"
     pagecolor="#ffffff"
     bordercolor="#000000"
     borderopacity="0.25"
     inkscape:showpageshadow="2"
     inkscape:pageopacity="0.0"
     inkscape:pagecheckerboard="0"
     inkscape:deskcolor="#d1d1d1"
     inkscape:document-units="px"
     inkscape:zoom="8.0933172"
     inkscape:cx="14.332813"
     inkscape:cy="15.877297"
     inkscape:window-width="1920"
     inkscape:window-height="1011"
     inkscape:window-x="0"
     inkscape:window-y="32"
     inkscape:window-maximized="1"
     inkscape:current-layer="layer1"
     showgrid="true">
    <inkscape:grid
       id="grid1"
       units="px"
       originx="0"
       originy="0"
       spacingx="1"
       spacingy="1"
       empcolor="#0099e5"
       empopacity="0.30196078"
       color="#0099e5"
       opacity="0.14901961"
       empspacing="8"
       enabled="true"
       visible="true" />
  </sodipodi:namedview>
  <defs
     id="defs1" />
  <g
     inkscape:label="Layer 1"
     inkscape:groupmode="layer"
     id="layer1">
    <path
       id="path4-9"
       d="m 17.130782,22.961258 c -0.213132,-0.252807 -0.209445,-0.620024 -0.250963,-0.955873 -0.04799,-0.395816 -0.06551,-0.765801 -0.118097,-1.120099 -0.05441,-0.368142 -0.07935,-0.711372 -0.119022,-1.106263 -0.121791,-1.20591 -0.131023,-0.967866 -1.271422,-0.964178 l -0.517606,3.992329 c -0.0074,0.01657 -0.0194,0.04522 -0.03135,0.06643 l -0.120868,-0.317395 c -0.261107,-1.040752 -1.21421,-5.71769 -1.17546,-6.054458 0.03134,0.0064 1.801021,0.578506 1.825933,0.592343 0,0 -0.521301,1.384906 0.610799,1.40705 0.378285,0.0074 0.590499,-0.182684 0.706753,-0.414272 0.200213,-0.395822 0.02396,-0.60065 -0.03411,-0.930036 l 1.87022,-0.619105 c 0.116255,0.432729 -1.21329,5.439972 -1.374755,6.423525 z m 7.562999,-6.719693 c 0,-0.301705 0.19652,-0.143933 0.423496,-0.05903 0.20114,0.07658 0.482545,0.118097 0.689222,0.222356 0.02492,0.485315 -0.08211,0.459484 0.132859,0.836851 0.452103,0.119941 0.444722,0.07935 0.763958,-0.0978 l 0.05261,-0.764883 1.151473,-0.335842 c -0.0092,0.430878 -0.731665,3.690617 -0.886674,3.962797 -0.101491,-0.10149 -0.03045,0.08489 -0.133784,-0.214058 -0.03873,-0.11164 -0.04426,-0.232506 -0.05628,-0.34876 L 26.643366,17.77504 c -0.09688,-0.278644 0.05351,-0.298018 -0.739052,-0.216826 -0.115329,0.332155 -0.257419,1.980017 -0.270338,2.461645 C 25.288909,19.7855 25.251997,18.875765 25.090539,18.1644 25.006569,17.797183 24.693797,16.503619 24.693797,16.241587 Z M 4.1960934,16.034889 5.2368447,16.397493 c 0.02859,0.453021 -0.049848,0.506539 0.1300974,0.843306 0.4456395,0.112566 0.4437959,0.08119 0.7639581,-0.09411 l 0.052612,-0.763958 1.1533183,-0.335849 C 7.3285874,16.40303 6.5673351,19.860215 6.4464694,20.024448 6.2425615,19.741192 6.1216957,18.061961 6.0340411,17.536974 l -0.7021403,0.0064 -0.2915556,2.475481 C 4.726638,19.789141 4.5808607,18.435603 4.4895189,18.036093 4.3907891,17.601527 4.0494103,16.293201 4.1961128,16.034857 Z m 6.5480766,-4.83471 c 0,3.090893 2.136864,4.411213 2.298329,4.716613 -0.102416,0.09503 -2.549292,1.519609 -2.692301,1.561127 -0.328467,-0.16331 -0.3829035,-0.316468 -0.6227913,-0.53237 -0.5868121,-0.526838 -1.6607814,-0.940184 -2.040911,-1.270496 0.1743771,-0.548056 1.4504117,-0.866368 1.4504117,-3.336318 0,-1.795485 -1.6450947,-3.5494455 -3.4940905,-3.4793281 -1.8360837,0.070127 -3.3243248,1.7336681 -3.3243248,3.6417181 0,2.138714 1.2566528,2.672009 1.4725544,3.202534 -1.3563011,0.856224 -3.00046994,1.213291 -3.00046994,3.3031 0,3.912974 -0.24450066,3.506084 0.69199054,3.491321 1.3719878,-0.0212 6.0673761,-0.05903 6.8018092,0.03783 0.1586962,0.472402 0.068275,1.682925 0.068275,2.244818 0,1.411662 -0.1900648,1.789947 0.3709096,1.789947 1.8812891,0 14.1285991,0.06735 14.9331571,-0.02955 0.104259,-0.605262 -0.04985,-3.38983 0.0406,-3.77919 0.04336,-0.188221 -0.0019,-0.07104 0.08027,-0.181765 0.523144,-0.325692 6.215923,0.108873 7.441207,-0.113485 l 0.0194,-3.541145 c 0,-2.37399 -2.648014,-2.653553 -2.978326,-3.350162 0.351529,-0.383823 0.671691,-0.562818 0.992778,-1.16808 1.349839,-2.548359 -0.469633,-5.5488289 -2.883297,-5.5488289 -1.904357,0 -3.478409,1.6939929 -3.478409,3.4802459 0,2.458876 1.303714,2.816868 1.433805,3.33355 -0.18914,0.181765 -1.432881,0.829469 -2.042754,1.279721 -0.268494,0.198371 -0.321086,0.345999 -0.547131,0.513002 -0.123642,0.03134 -2.590817,-1.407975 -2.740288,-1.548216 0.522225,-0.790713 2.290029,-1.520535 2.290029,-5.042304 0,-2.9755584 -2.462563,-5.5313137 -5.40491,-5.4667271 -2.882371,0.062756 -5.13549,2.6175721 -5.13549,5.7924251"
       style="fill:#000000;fill-opacity:1;fill-rule:evenodd;stroke:none;stroke-width:0.00922654" />
  </g>
</svg>
