<?xml version="1.0" encoding="UTF-8" standalone="no"?>
<!-- Created with Inkscape (http://www.inkscape.org/) -->

<svg
   width="32"
   height="32"
   viewBox="0 0 32 32"
   version="1.1"
   id="svg1"
   inkscape:version="1.4.2 (2aeb623e1d, 2025-05-12)"
   sodipodi:docname="setting.svg"
   xmlns:inkscape="http://www.inkscape.org/namespaces/inkscape"
   xmlns:sodipodi="http://sodipodi.sourceforge.net/DTD/sodipodi-0.dtd"
   xmlns="http://www.w3.org/2000/svg"
   xmlns:svg="http://www.w3.org/2000/svg">
  <sodipodi:namedview
     id="namedview1"
     pagecolor="#ffffff"
     bordercolor="#000000"
     borderopacity="0.25"
     inkscape:showpageshadow="2"
     inkscape:pageopacity="0.0"
     inkscape:pagecheckerboard="0"
     inkscape:deskcolor="#d1d1d1"
     inkscape:document-units="px"
     inkscape:zoom="2.8614197"
     inkscape:cx="-87.718693"
     inkscape:cy="23.589688"
     inkscape:window-width="1920"
     inkscape:window-height="1011"
     inkscape:window-x="0"
     inkscape:window-y="32"
     inkscape:window-maximized="1"
     inkscape:current-layer="layer1"
     showgrid="true">
    <inkscape:grid
       id="grid1"
       units="px"
       originx="0"
       originy="0"
       spacingx="1"
       spacingy="1"
       empcolor="#0099e5"
       empopacity="0.30196078"
       color="#0099e5"
       opacity="0.14901961"
       empspacing="8"
       enabled="true"
       visible="true" />
  </sodipodi:namedview>
  <defs
     id="defs1" />
  <g
     inkscape:label="Layer 1"
     inkscape:groupmode="layer"
     id="layer1">
    <g
       id="g17"
       transform="matrix(0.07516679,0,0,0.07516679,-198.27423,-332.72972)">
      <path
         id="path106-9"
         d="m 2709.2001,4443.2691 c -0.56,-0.5867 -0.2267,-1.56 0.5733,-1.6934 8.2667,-1.4133 14.96,-1.56 23.7867,-1.5066 27.4133,0.12 53.64,16.7733 66.7333,39.88 11.68,20.7066 12.7867,47.4933 5.36,70.3066 -0.4667,1.4267 -0.1467,3 0.8667,4.12 13.52,15.1733 36.4933,39.04 55.36,57.7733 7.2666,7.2267 19.2133,19.4934 35.8266,36.8 4.2534,4.4534 9.1734,9.1334 14.76,14.0267 0.3067,0.28 0.32,0.7333 0.04,1.0267 l -35.7733,35.7466 c -0.5867,0.6134 -1.5733,0.6134 -2.1867,0 l -108.1466,-108.1466 c -0.4534,-0.4534 -1.1334,-0.6267 -1.76,-0.4534 -18.92,5.2934 -37.3467,6.96 -55.28,1.0534 -18,-5.9467 -31.84,-17.4667 -41.5334,-34.5734 -12.2666,-21.6933 -13.3866,-46 -7.4133,-69.9866 0.28,-1.08 1.64,-1.4267 2.3867,-0.6133 l 47.2,51.3733 c 0.2266,0.2533 0.6,0.36 0.92,0.24 11.64,-3.9067 24.9866,-4.4134 37.4,-4.7867 0.64,-0.013 1.1866,-0.4933 1.2933,-1.1333 1.84,-12.24 4.6133,-23.7067 8.2533,-34.4133 0.3067,-0.9334 0.1067,-1.9467 -0.56,-2.6667 l -48.1066,-52.3733 v 0"
         style="fill:#4d4d4d;fill-opacity:1;fill-rule:nonzero;stroke:none;stroke-width:0.133333" />
      <path
         id="path107-3"
         d="m 3033.2134,4486.8291 c 0.5066,-0.2134 1.0933,0.027 1.2933,0.5333 11.6,29.5866 -2.44,63.6666 -26.48,82.4266 -16.16,12.64 -40.16,13.8934 -60.3866,8.6134 -1.4667,-0.3734 -3.0267,0.04 -4.12,1.1066 l -50.1867,48.84 c -0.5867,0.56 -1.4933,0.5467 -2.08,-0.013 l -34.9467,-34.96 c -0.6533,-0.6667 -0.6533,-1.72 0,-2.36 23.3867,-23.36 38.7067,-38.7733 45.96,-46.2133 3.6667,-3.76 3.5867,-5.8134 2.0267,-10.88 -17.4133,-56.6667 29.1733,-102.0933 85.1467,-88.2933 1,0.2533 1.36,1.4933 0.6533,2.2266 l -39,39.9467 c -0.8133,0.84 -1.12,2.04 -0.8133,3.16 l 7.6266,27.6266 c 0.2534,0.9067 0.96,1.6267 1.8667,1.8934 l 31.52,9.48 c 0.6667,0.2133 1.3733,0 1.8133,-0.5067 11.0934,-12.6 23.6533,-26.2933 37.68,-41.0666 0.6,-0.6534 1.4133,-1.1734 2.4267,-1.56 v 0"
         style="fill:#d4aa00;fill-opacity:1;fill-rule:nonzero;stroke:none;stroke-width:0.133333" />
      <path
         id="path128-7"
         d="m 2692.1601,4757.9224 c -0.92,0.92 -2.7467,2.52 -5.5067,4.8266 -1.6533,1.3734 -2.52,3.4534 -2.2933,5.5734 0.7466,7.2666 0.8666,13.9466 0.3333,20.04 -0.3333,3.88 0.6533,6.9866 3.7733,8.76 4.72,2.6933 8.8134,5.6933 12.32,9.0133 0.7734,0.7467 1.8267,1.1467 2.8934,1.08 l 20.7466,-1.12 c 1.5334,-0.093 2.9867,-0.6933 4.1067,-1.7467 1.5467,-1.4266 3.2667,-3.0933 5.1467,-4.9733 1.8933,-1.9067 3.5466,-3.6133 4.9733,-5.16 1.0533,-1.12 1.6533,-2.5733 1.72,-4.1067 l 1.0933,-20.7466 c 0.067,-1.0667 -0.32,-2.12 -1.0666,-2.9067 -3.3467,-3.4933 -6.3467,-7.5867 -9.0667,-12.2933 -1.76,-3.12 -4.8667,-4.1067 -8.7467,-3.76 -6.0933,0.5333 -12.7733,0.4266 -20.04,-0.2934 -2.12,-0.2133 -4.2133,0.6534 -5.5866,2.3067 -2.2934,2.7467 -3.88,4.5867 -4.8,5.5067 z m 114.08,-112.64 c 0.3733,-0.067 0.7466,0.053 1.0266,0.32 l 36.1467,36.16 c 0.44,0.44 0.44,1.1733 -0.013,1.6133 -4.8267,4.6267 -11.56,10.16 -16.9734,15.56 -10.8666,10.8533 -27.44,27.2 -49.72,49.0133 -1.1066,1.0667 -2.7333,3.36 -4.8933,6.84 -0.32,0.5067 -0.4533,1.1334 -0.3467,1.7467 0.44,2.68 0.64,8.6133 0.6267,17.8133 -0.053,24.5334 -12.7067,43.5067 -33.8,55.16 -12.1333,6.6934 -29.7067,6.7467 -42.88,5.04 -10.0667,-1.3333 -18.7867,-10.7733 -27.9733,-20.24 -10.96,-11.32 -12.0934,-23.7066 -11.84,-39.1066 0.2266,-12.92 2.1866,-22.5867 9.2933,-31.9067 10.7067,-14.0267 25.5733,-25.0533 43.64,-26.2267 5.4933,-0.36 12.5333,-0.1066 21.1067,0.76 0.6933,0.093 1.3866,-0.013 2.04,-0.2533 1.5733,-0.5733 3.1333,-1.6267 4.6933,-3.1733 10.76,-10.52 23.32,-23.2267 37.68,-38.1067 9.2667,-9.5867 20.6533,-19.9333 31.0667,-30.5733 0.1733,-0.1867 0.5466,-0.32 1.12,-0.44"
         style="fill:#d4aa00;fill-opacity:1;fill-rule:nonzero;stroke:none;stroke-width:0.133333" />
      <path
         id="path129-6"
         d="m 2916.8667,4730.4957 c -1.6666,-1.7333 -4.4133,-1.7867 -6.1466,-0.12 l -1.6134,1.5467 c -1.7333,1.6666 -1.7733,4.4266 -0.12,6.1466 l 82.0534,85.2534 c 1.6666,1.7333 4.4133,1.7866 6.1333,0.12 l 1.6133,-1.5467 c 1.7334,-1.6667 1.7867,-4.4133 0.12,-6.1467 z m 15,-17.4667 c -1.84,-1.9466 -4.9066,-2.0133 -6.8533,-0.16 l -1.1067,1.0534 c -1.9333,1.8533 -2,4.9333 -0.16,6.8666 l 82.7867,86.6134 c 1.84,1.9466 4.92,2.0133 6.8533,0.16 l 1.1067,-1.0534 c 1.9466,-1.8533 2.0133,-4.9333 0.16,-6.8666 l -82.7867,-86.6134 m 15.6934,-15.5466 c -1.2267,-1.28 -3.2667,-1.3334 -4.5467,-0.1067 l -3.1067,2.9467 c -1.28,1.2266 -1.3333,3.28 -0.1066,4.56 l 83.3733,87.56 c 1.24,1.28 3.2666,1.3333 4.56,0.1066 l 3.0933,-2.9466 c 1.28,-1.2267 1.3333,-3.28 0.12,-4.56 l -83.3866,-87.56 m -75.44,27.36 c -2.5734,-2.92 -2.4267,-5.96 0.44,-9.1067 6.1333,-6.76 12.3066,-11.8533 20,-19.6 10.9333,-11.0267 22.9733,-22.8267 36.1333,-35.36 3.1333,-2.9733 7.6267,0.36 9.44,3 4.1467,6.0267 -3.88,14.2667 5.04,19.7867 1.4667,0.8933 4.3467,2.3733 8.64,4.4133 2.32,1.1067 5.2933,3.52 8.8667,7.2533 20.88,21.7067 41.5333,43.4534 61.9866,65.2534 4.0533,4.3466 9.4133,9.5866 16.08,15.7466 2.8,2.6 5.6267,7.52 6.16,11.5867 1.56,11.9867 1.68,20.0533 -6.76,28.1867 -10.4933,10.12 -15.8267,15.2666 -15.9733,15.44 -6.6134,6.9466 -14.0133,7.9066 -23.5067,7.0666 -5.0266,-0.44 -9.16,-1.8266 -12.4,-4.1733 -0.6133,-0.44 -1.1733,-0.9467 -1.68,-1.5067 -4.6,-5.1066 -8.28,-9.08 -11.08,-11.92 -35,-35.5466 -59.8133,-60.8 -74.4266,-75.72 -1.24,-1.2666 -3.04,-5.0266 -5.4,-11.3066 -0.32,-0.8667 -1.56,-2.7867 -3.68,-5.7467 -3.0667,-4.28 -9.0267,-2.8667 -14.0134,-1.96 -1.4266,0.28 -2.8933,-0.2267 -3.8666,-1.3333"
         style="fill:#aa0000;fill-opacity:1;fill-rule:nonzero;stroke:none;stroke-width:0.133333" />
      <path
         id="path136-1"
         d="m 3030.9467,4785.0424 c 1.2133,1.28 1.16,3.3333 -0.12,4.56 l -3.0933,2.9466 c -1.2934,1.2267 -3.32,1.1734 -4.56,-0.1066 l -83.3733,-87.56 c -1.2267,-1.28 -1.1734,-3.3334 0.1066,-4.56 l 3.1067,-2.9467 c 1.28,-1.2267 3.32,-1.1733 4.5467,0.1067 l 83.3866,87.56 v 0"
         style="fill:#ffffff;fill-opacity:1;fill-rule:nonzero;stroke:none;stroke-width:0.133333" />
      <path
         id="path137-7"
         d="m 3014.6534,4799.6424 c 1.8533,1.9333 1.7866,5.0133 -0.16,6.8666 l -1.1067,1.0534 c -1.9333,1.8533 -5.0133,1.7866 -6.8533,-0.16 l -82.7867,-86.6134 c -1.84,-1.9333 -1.7733,-5.0133 0.16,-6.8666 l 1.1067,-1.0534 c 1.9467,-1.8533 5.0133,-1.7866 6.8533,0.16 l 82.7867,86.6134 v 0"
         style="fill:#ffffff;fill-opacity:1;fill-rule:nonzero;stroke:none;stroke-width:0.133333" />
      <path
         id="path138-8"
         d="m 2998.9067,4815.749 c 1.6667,1.7334 1.6134,4.48 -0.12,6.1467 l -1.6133,1.5467 c -1.72,1.6666 -4.4667,1.6133 -6.1333,-0.12 l -82.0534,-85.2534 c -1.6533,-1.72 -1.6133,-4.48 0.12,-6.1466 l 1.6134,-1.5467 c 1.7333,-1.6667 4.48,-1.6133 6.1466,0.12 l 82.04,85.2533 v 0"
         style="fill:#ffffff;fill-opacity:1;fill-rule:nonzero;stroke:none;stroke-width:0.133333" />
      <path
         id="path142"
         d="m 2733.6801,4799.3757 c -1.88,1.88 -3.6,3.5467 -5.1467,4.9733 -1.12,1.0534 -2.5733,1.6534 -4.1067,1.7467 l -20.7466,1.12 c -1.0667,0.067 -2.12,-0.3333 -2.8934,-1.08 -3.5066,-3.32 -7.6,-6.32 -12.32,-9.0133 -3.12,-1.7734 -4.1066,-4.88 -3.7733,-8.76 0.5333,-6.0934 0.4133,-12.7734 -0.3333,-20.04 -0.2267,-2.12 0.64,-4.2 2.2933,-5.5734 2.76,-2.3066 4.5867,-3.9066 5.5067,-4.8266 0.92,-0.92 2.5066,-2.76 4.8,-5.5067 1.3733,-1.6533 3.4666,-2.52 5.5866,-2.3067 7.2667,0.72 13.9467,0.8267 20.04,0.2934 3.88,-0.3467 6.9867,0.64 8.7467,3.76 2.72,4.7066 5.72,8.8 9.0667,12.2933 0.7466,0.7867 1.1333,1.84 1.0666,2.9067 l -1.0933,20.7466 c -0.067,1.5334 -0.6667,2.9867 -1.72,4.1067 -1.4267,1.5467 -3.08,3.2533 -4.9733,5.16 v 0"
         style="fill:#ffffff;fill-opacity:1;fill-rule:nonzero;stroke:none;stroke-width:0.133333" />
    </g>
  </g>
</svg>
